<?xml version="1.0" standalone="no"?><!DOCTYPE svg PUBLIC "-//W3C//DTD SVG 1.1//EN" "http://www.w3.org/Graphics/SVG/1.1/DTD/svg11.dtd"><svg t="1604398425398" class="icon" viewBox="0 0 1024 1024" version="1.1" xmlns="http://www.w3.org/2000/svg" p-id="1163" xmlns:xlink="http://www.w3.org/1999/xlink" width="20" height="20"><defs><style type="text/css"></style></defs><path d="M512 66.56a445.44 445.44 0 1 0 445.44 445.44 445.952 445.952 0 0 0-445.44-445.44z m0 819.03616A373.59616 373.59616 0 1 1 885.59616 512 374.016 374.016 0 0 1 512 885.59616z m204.58496-320.73728H296.28928a37.85216 37.85216 0 0 0-27.1872 62.82752l138.60864 145.18272a35.92192 35.92192 0 1 0 51.96288-49.60768l-82.6368-86.528h339.54816a35.92704 35.92704 0 0 0 0-71.87456z m-421.504-105.984h420.29568a37.84704 37.84704 0 0 0 27.1872-62.8224L603.9552 250.88a35.92192 35.92192 0 1 0-51.96288 49.6128l82.63168 86.5536H295.08096a35.92192 35.92192 0 0 0 0 71.84384z" fill="#595BB3" p-id="1164"></path></svg>